<?xml version="1.0" encoding="utf-8"?>
<svg viewBox="0 0 500 500" xmlns="http://www.w3.org/2000/svg">
  <defs/>
  <g transform="matrix(0.100402, 0, 0, -0.091326, 204.210022, 477.302063)" fill="#335c6e" stroke="none" style="">
    <path d="M 3595 4731 C 3515 4711 3451 4660 3437 4602 C 3432 4581 3447 4257 3470 3900 C 3476 3815 3485 3669 3490 3575 C 3508 3237 3511 3193 3520 3090 C 3525 3032 3532 2911 3535 2820 C 3538 2729 3545 2608 3550 2550 C 3556 2492 3562 2393 3565 2330 C 3568 2267 3575 2145 3581 2060 C 3587 1975 3594 1862 3596 1810 C 3599 1758 3602 1697 3604 1675 C 3605 1653 3610 1574 3614 1500 C 3646 899 3649 882 3755 828 C 3790 810 3806 808 3885 814 C 4010 823 4023 827 4072 871 L 4115 909 L 4118 1082 C 4120 1177 4117 1296 4111 1345 C 4105 1395 4098 1500 4095 1580 C 4092 1660 4085 1772 4080 1830 C 4074 1888 4065 2030 4060 2145 C 4054 2261 4028 2711 4026 2755 C 4023 2799 4017 2896 4011 2970 C 4005 3044 3998 3146 3996 3195 C 3993 3245 3989 3321 3985 3365 C 3982 3409 3975 3537 3970 3650 C 3965 3763 3953 3952 3945 4070 C 3937 4188 3928 4341 3925 4410 C 3918 4584 3911 4625 3887 4657 C 3830 4731 3810 4740 3710 4739 C 3663 4738 3612 4735 3595 4731 Z" style="fill: rgb(68, 122, 146); stroke: rgb(186, 218, 85); paint-order: stroke; stroke-opacity: 0; stroke-width: 239.923px;"/>
    <path d="M 2807 4134 C 2804 4131 2778 4127 2749 4125 C 2686 4120 2645 4102 2605 4061 C 2578 4032 2576 4024 2574 3942 C 2573 3894 2579 3815 2586 3765 C 2594 3716 2605 3639 2610 3595 C 2615 3551 2624 3495 2629 3470 C 2635 3445 2644 3380 2650 3325 C 2656 3270 2666 3209 2671 3189 C 2676 3169 2680 3138 2680 3121 C 2680 3103 2685 3070 2690 3047 C 2696 3024 2709 2929 2720 2835 C 2731 2742 2747 2622 2754 2570 C 2762 2518 2774 2437 2780 2390 C 2786 2343 2795 2280 2800 2250 C 2813 2168 2829 2052 2835 1985 C 2839 1952 2850 1882 2861 1830 C 2872 1778 2885 1695 2891 1645 C 2911 1467 2919 1414 2929 1375 C 2935 1353 2940 1314 2940 1288 C 2940 1208 2975 1084 3009 1041 C 3047 994 3085 986 3210 999 C 3313 1010 3345 1022 3388 1063 C 3447 1120 3450 1171 3410 1425 C 3400 1491 3387 1586 3380 1635 C 3374 1685 3364 1748 3359 1775 C 3354 1803 3345 1870 3340 1925 C 3334 1980 3326 2036 3320 2050 C 3310 2075 3299 2157 3280 2344 C 3274 2398 3267 2448 3263 2453 C 3260 2459 3253 2493 3249 2529 C 3230 2702 3209 2859 3201 2895 C 3196 2917 3184 2994 3175 3065 C 3166 3137 3146 3278 3130 3380 C 3113 3482 3096 3603 3091 3650 C 3077 3766 3052 3935 3040 3993 C 3021 4086 2956 4140 2866 4140 C 2837 4140 2811 4137 2807 4134 Z" style="fill: rgb(68, 122, 146); stroke: rgb(186, 218, 85); paint-order: stroke; stroke-opacity: 0; stroke-width: 239.923px;"/>
    <path d="M 2070 3525 C 2012 3519 1934 3508 1895 3502 C 1857 3496 1778 3486 1720 3479 C 1662 3473 1581 3464 1540 3458 C 1460 3448 1311 3432 1245 3425 C 1034 3405 950 3371 918 3290 C 906 3260 915 3082 935 2930 C 943 2872 952 2765 956 2692 L 963 2559 L 930 2525 C 912 2507 885 2486 871 2480 C 856 2474 832 2453 816 2434 C 788 2398 787 2398 793 2286 C 801 2126 842 2056 947 2021 C 1015 1998 1025 1971 1044 1764 C 1053 1671 1065 1546 1070 1485 C 1076 1425 1083 1350 1085 1320 C 1095 1168 1119 1084 1170 1035 L 1209 997 L 1327 1004 C 1392 1008 1508 1018 1585 1026 C 1952 1066 2181 1091 2245 1100 C 2284 1105 2365 1114 2425 1119 C 2658 1139 2719 1159 2772 1231 C 2799 1268 2805 1359 2786 1449 C 2761 1568 2699 1630 2605 1630 C 2540 1630 2281 1604 2210 1590 C 2180 1584 2119 1577 2075 1574 C 2031 1572 1969 1565 1937 1559 C 1906 1554 1876 1551 1871 1554 C 1866 1557 1837 1553 1806 1545 C 1775 1537 1711 1530 1664 1530 C 1593 1530 1578 1533 1573 1548 C 1569 1557 1560 1570 1553 1575 C 1545 1581 1536 1630 1530 1705 C 1524 1771 1516 1854 1513 1890 C 1503 1978 1507 2052 1523 2065 C 1549 2088 1709 2126 1736 2116 C 1744 2113 1761 2115 1774 2119 C 1786 2124 1841 2131 1896 2134 C 1950 2138 2020 2145 2050 2151 C 2154 2171 2205 2179 2264 2187 C 2321 2195 2326 2198 2367 2248 C 2404 2294 2410 2307 2410 2348 C 2410 2420 2391 2518 2370 2560 C 2348 2602 2300 2647 2266 2656 C 2243 2661 1797 2619 1685 2600 C 1652 2595 1593 2590 1554 2590 C 1465 2590 1453 2602 1439 2696 C 1421 2819 1420 2893 1436 2917 C 1456 2949 1507 2968 1592 2975 C 1632 2979 1721 2990 1790 3000 C 1859 3010 1958 3022 2010 3025 C 2062 3029 2114 3035 2125 3040 C 2136 3044 2181 3053 2225 3059 C 2320 3073 2386 3108 2412 3160 C 2445 3224 2429 3385 2384 3457 C 2329 3543 2291 3551 2070 3525 Z M 2330 3396 C 2330 3356 2339 3291 2349 3251 C 2377 3144 2377 3144 2257 3142 C 2201 3141 2117 3133 2070 3126 C 1975 3109 1845 3093 1696 3079 C 1641 3074 1580 3066 1561 3060 C 1541 3055 1478 3050 1421 3048 C 1346 3047 1316 3042 1313 3033 C 1310 3025 1315 2993 1324 2961 C 1333 2930 1340 2868 1340 2824 C 1340 2781 1402 2104 1409 2051 C 1416 1998 1425 1903 1430 1839 C 1435 1775 1443 1696 1449 1664 C 1455 1632 1460 1563 1460 1510 C 1460 1457 1463 1411 1466 1407 C 1470 1404 1485 1407 1501 1415 C 1516 1423 1554 1430 1585 1430 C 1616 1430 1673 1436 1713 1444 C 1753 1452 1828 1461 1880 1463 C 1932 1466 1988 1473 2003 1479 C 2019 1485 2066 1490 2108 1490 C 2150 1490 2216 1497 2255 1505 C 2293 1513 2357 1520 2395 1520 C 2434 1520 2490 1526 2520 1534 C 2609 1556 2677 1562 2686 1548 C 2690 1542 2695 1509 2697 1477 C 2699 1444 2704 1401 2709 1381 C 2724 1321 2730 1256 2722 1243 C 2717 1235 2661 1227 2570 1220 C 2490 1214 2407 1205 2385 1200 C 2363 1195 2318 1190 2285 1190 C 2252 1190 2187 1183 2140 1175 C 2093 1167 2026 1160 1990 1160 C 1954 1160 1894 1153 1855 1145 C 1817 1137 1755 1130 1718 1130 C 1682 1130 1616 1123 1573 1115 C 1530 1107 1465 1100 1429 1100 C 1393 1100 1329 1091 1286 1080 C 1243 1068 1203 1061 1197 1063 C 1190 1065 1185 1100 1184 1151 C 1184 1197 1178 1276 1172 1325 C 1157 1446 1140 1628 1130 1780 C 1125 1849 1116 1932 1111 1965 C 1105 1998 1100 2046 1100 2072 C 1100 2098 1097 2121 1093 2123 C 1079 2131 960 2111 931 2096 C 894 2076 881 2090 887 2144 C 890 2167 882 2237 870 2299 C 858 2361 851 2415 855 2418 C 858 2421 907 2424 963 2425 L 1065 2425 L 1068 2458 C 1070 2477 1064 2527 1056 2569 C 1047 2612 1040 2683 1040 2726 C 1039 2769 1033 2841 1025 2885 C 1017 2929 1010 2999 1010 3041 C 1010 3083 1001 3159 990 3211 C 978 3269 974 3308 980 3314 C 985 3319 1017 3322 1050 3321 C 1084 3320 1159 3325 1218 3334 C 1365 3355 1496 3370 1620 3380 C 1678 3385 1741 3394 1760 3400 C 1779 3405 1822 3410 1855 3410 C 1888 3410 1946 3417 1985 3425 C 2023 3433 2080 3440 2110 3440 C 2140 3440 2183 3445 2205 3451 C 2274 3469 2315 3477 2323 3473 C 2327 3471 2330 3436 2330 3396 Z" style="fill: rgb(68, 122, 146); stroke: rgb(186, 218, 85); paint-order: stroke; stroke-opacity: 0; stroke-width: 239.923px;"/>
    <path d="M 5125 3247 C 4970 3227 4754 3145 4655 3066 C 4634 3049 4594 3021 4568 3005 C 4519 2974 4370 2815 4370 2793 C 4370 2787 4359 2769 4346 2753 C 4297 2695 4235 2519 4219 2394 C 4204 2270 4213 2079 4238 1985 C 4255 1924 4335 1745 4373 1685 C 4402 1638 4498 1530 4559 1475 C 4655 1387 4810 1297 4914 1269 C 4941 1261 4965 1249 4967 1243 C 4970 1236 4984 1230 4999 1230 C 5013 1230 5054 1224 5090 1215 C 5250 1179 5440 1180 5570 1217 C 5837 1293 5978 1374 6134 1542 C 6302 1723 6400 1999 6386 2250 C 6381 2349 6363 2458 6349 2475 C 6345 2481 6336 2508 6330 2535 C 6315 2606 6235 2755 6188 2802 C 6178 2812 6170 2824 6170 2829 C 6170 2843 6018 2991 5975 3018 C 5953 3032 5926 3052 5914 3062 C 5884 3089 5682 3190 5659 3190 C 5648 3190 5629 3196 5617 3204 C 5561 3239 5266 3264 5125 3247 Z M 5470 3156 C 5495 3148 5544 3134 5580 3125 C 5665 3103 5819 3028 5895 2971 C 6026 2874 6215 2649 6232 2570 C 6239 2541 6256 2490 6276 2442 C 6284 2424 6290 2387 6290 2360 C 6290 2333 6295 2299 6300 2284 C 6313 2250 6295 2044 6274 1987 C 6266 1967 6260 1939 6260 1927 C 6260 1893 6166 1712 6121 1660 C 6063 1592 5991 1519 5940 1477 C 5895 1439 5730 1354 5675 1339 C 5632 1329 5580 1310 5543 1293 C 5497 1271 5165 1272 5121 1294 C 5105 1303 5081 1310 5069 1310 C 5009 1310 4787 1409 4700 1476 C 4668 1500 4638 1520 4634 1520 C 4618 1520 4486 1670 4453 1725 C 4446 1736 4425 1771 4406 1803 C 4386 1835 4370 1866 4370 1872 C 4370 1881 4597 2930 4611 2930 C 4615 2930 4625 2936 4632 2943 C 4654 2964 4724 3016 4740 3023 C 4748 3027 4787 3048 4825 3070 C 4864 3091 4906 3109 4918 3110 C 4931 3110 4956 3116 4973 3124 C 5070 3166 5377 3185 5470 3156 Z" style="fill: rgb(68, 122, 146); stroke: rgb(186, 218, 85); paint-order: stroke; stroke-opacity: 0; stroke-width: 239.923px;"/>
    <path d="M5155 2848 c-33 -5 -75 -16 -93 -24 -18 -8 -40 -14 -50 -14 -39 0 -163 -82 -235 -156 -106 -107 -162 -224 -171 -359 -10 -143 15 -243 94 -376 40 -67 150 -189 171 -189 6 0 25 -11 42 -24 44 -33 132 -73 192 -86 28 -7 68 -17 90 -23 54 -16 220 -15 275 1 25 7 70 21 100 29 30 9 62 23 71 30 8 7 21 13 28 13 16 0 78 47 144 110 60 56 147 185 147 220 1 14 7 36 15 50 20 34 21 280 2 318 -8 15 -29 59 -47 97 -47 98 -119 185 -198 240 -102 71 -178 109 -248 126 -27 6 -58 15 -69 18 -30 11 -192 10 -260 -1z m280 -96 c65 -16 107 -33 153 -63 24 -16 46 -29 49 -29 10 0 76 -62 121 -114 45 -53 92 -134 92 -160 0 -8 6 -19 14 -23 17 -10 26 -56 32 -165 4 -74 1 -97 -20 -157 -22 -62 -70 -142 -108 -179 -47 -45 -95 -82 -109 -82 -8 0 -26 -11 -39 -24 -12 -14 -37 -28 -54 -31 -17 -4 -51 -16 -74 -27 -40 -19 -58 -20 -181 -16 -75 3 -146 10 -156 16 -11 7 -49 21 -85 33 -36 11 -72 27 -80 34 -8 7 -41 31 -73 53 -56 37 -137 131 -137 156 0 6 -8 19 -18 27 -10 9 -31 55 -46 103 -46 144 -27 276 54 376 28 35 39 14 33 -64 -4 -54 -1 -67 26 -113 62 -104 160 -154 262 -132 57 13 168 98 169 129 0 9 10 15 25 15 22 0 28 -7 42 -55 23 -75 76 -146 127 -171 22 -11 67 -22 99 -26 80 -8 159 28 213 99 34 45 64 125 64 170 0 20 -67 138 -79 138 -4 0 -21 12 -37 27 -17 16 -55 34 -93 44 -61 17 -65 16 -108 -2 -25 -10 -49 -19 -55 -19 -20 0 -113 -95 -130 -133 -21 -45 -33 -42 -40 10 -8 57 -47 132 -92 176 -50 48 -70 56 -153 61 -36 3 -67 7 -70 9 -9 9 40 67 57 67 9 0 20 4 26 9 45 41 263 60 379 33z m-361 -191 c3 -5 17 -12 31 -15 31 -8 73 -50 81 -81 3 -14 10 -28 15 -31 14 -8 10 -38 -11 -85 -25 -56 -38 -70 -79 -91 -56 -30 -141 -17 -186 27 -24 25 -45 79 -45 117 0 62 46 132 95 144 14 3 28 10 31 15 3 5 18 9 34 9 16 0 31 -4 34 -9z m534 -96 c57 -19 108 -62 117 -98 4 -15 11 -30 16 -33 12 -7 11 -51 -1 -59 -5 -3 -10 -16 -10 -27 0 -30 -69 -91 -117 -106 -81 -24 -168 19 -206 101 -22 48 -22 74 2 123 24 48 62 83 102 91 16 3 32 10 35 14 7 12 7 12 62 -6z" style="fill: rgb(68, 122, 146); stroke: rgb(186, 218, 85); paint-order: stroke; stroke-opacity: 0; stroke-width: 239.923px;"/>
  </g>
</svg>